General                          : ChattChitto RG - Movies [R2L]
==========
Complete name                    : Paranormal Activity 2 UNRATED 2010 720p BRRip H264 [ChattChitto RG]
Format                           : MPEG-4
Format profile                   : Base Media
Codec ID                         : isom
File size                        : 1.75 GiB
Duration                         : 1h 38mn
Overall bit rate                 : 2 548 Kbps
Encoded date                     : UTC 2011-01-30 17:39:44

Video
==========
ID                               : 1
Format                           : AVC
Format/Info                      : Advanced Video Codec
Format profile                   : High@L4.0
Format settings, CABAC           : Yes
Format settings, ReFrames        : 4 frames
Codec ID                         : avc1
Codec ID/Info                    : Advanced Video Coding
Duration                         : 1h 38mn
Bit rate mode                    : Variable
Bit rate                         : 2 300 Kbps
Maximum bit rate                 : 20.7 Mbps
Width                            : 1 280 pixels
Height                           : 720 pixels
Display aspect ratio             : 16:9
Frame rate mode                  : Constant
Frame rate                       : 23.976 fps
Resolution                       : 24 bits
Colorimetry                      : 4:2:0
Scan type                        : Progressive
Bits/(Pixel*Frame)               : 0.104
Stream size                      : 1.57 GiB (90%)
Writing library                  : x264 core 84 r1400M 20fa784
Encoded date                     : UTC 2011-01-30 17:35:54

Audio
==========
ID                               : 2
Format                           : AAC
Format/Info                      : Advanced Audio Codec
Format version                   : Version 4
Format profile                   : LC
Format settings, SBR             : No
Codec ID                         : 40
Duration                         : 1h 38mn
Bit rate mode                    : Variable
Bit rate                         : 246 Kbps
Maximum bit rate                 : 430 Kbps
Channel(s)                       : 6 channels
Channel positions                : Front: L C R, Rear: L R, LFE
Sampling rate                    : 48.0 KHz
Resolution                       : 16 bits
Stream size                      : 173 MiB (10%)
Encoded date                     : UTC 2011-01-30 17:40:39

Subtitles                        : English | French | Portuguese


----------------------------------------------------
IMDB Link: http://www.imdb.com/title/tt1536044/
----------------------------------------------------



Screen Shots:
==============    
http://bayimg.com/dadloAAdK 
http://bayimg.com/eAdLaAAdk 
http://bayimg.com/EAdLbaAdK 
http://bayimg.com/EAdlDaADk 
http://bayimg.com/EADLeAAdk



ScreenShots Comparison:
=========================  
http://screenshotcomparison.com/comparison/25022



Plot:
======
After experiencing what they think are a series of "break-ins", a family sets up security cameras around their home, only to realize that the events unfolding before them are more sinister than they seem.



Release Info:
==============
original name .... : Paranormal Activity 2 UNRATED 2010 720p BRRip H264 [ChattChitto RG]
ripper.............: SECTOR7
encoder............: Recalled2Life (R2L)
video codec........: H264/.MP4
video bitrate......: 2300 Kbps
audio codec........: AAC-LC
aspect ratio.......: 16:9
resolution.........: 1280 x 720
genre..............: Horror | Mystery | Thriller
runtime............: 1h 38mn
language...........: English
rating.............: R
subtitles..........: English | French | Portuguese
sample.............: Yes [36.4 MB]
2ch Audio..........: 2ch Audio for XBox Viewers
Compatibility .....: XBox | PS3 | WD Live



Source:
========
Paranormal.Activity.2.2010.UNRATED.1080p.BluRay.DTS.x264-SECTOR7  THANKS!



Notes:
=======
ChattChitto RG Encourages Burning this Film with ConvertXtoDVD and Playing with VLC media player.
XBox 360 | PS3 | WD Live - Compatible 
Enhanced for your viewing pleasure ;)